<svg width="64" height="64" viewBox="0 0 64 64" fill="none" xmlns="http://www.w3.org/2000/svg">
<path d="M37.7979 48.251C38.1533 47.9162 38.7316 47.9159 39.0879 48.251L39.7324 48.8594C40.0887 49.1937 40.0888 49.7379 39.7324 50.0723L32.6357 56.749C32.2794 57.084 31.702 57.0839 31.3457 56.749L24.2666 50.0752C23.9113 49.7408 23.9112 49.1986 24.2666 48.8643L24.9111 48.2578C25.2666 47.9236 25.8438 47.9235 26.1992 48.2578L31.9941 53.71L37.7979 48.251ZM11 29C12.1046 29 13 29.8954 13 31V35C13 36.1046 12.1046 37 11 37H7C5.89543 37 5 36.1046 5 35V31C5 29.8954 5.89543 29 7 29H11ZM47 29C48.1046 29 49 29.8954 49 31V35C49 36.1046 48.1046 37 47 37H17C15.8954 37 15 36.1046 15 35V31C15 29.8954 15.8954 29 17 29H47ZM57 29C58.1046 29 59 29.8954 59 31V35C59 36.1046 58.1046 37 57 37H53C51.8954 37 51 36.1046 51 35V31C51 29.8954 51.8954 29 53 29H57ZM12 19C13.1046 19 14 19.8954 14 21V25C14 26.1046 13.1046 27 12 27H7C5.89543 27 5 26.1046 5 25V21C5 19.8954 5.89543 19 7 19H12ZM23 19C24.1046 19 25 19.8954 25 21V25C25 26.1046 24.1046 27 23 27H18C16.8954 27 16 26.1046 16 25V21C16 19.8954 16.8954 19 18 19H23ZM34 19C35.1046 19 36 19.8954 36 21V25C36 26.1046 35.1046 27 34 27H29C27.8954 27 27 26.1046 27 25V21C27 19.8954 27.8954 19 29 19H34ZM45 19C46.1046 19 47 19.8954 47 21V25C47 26.1046 46.1046 27 45 27H40C38.8954 27 38 26.1046 38 25V21C38 19.8954 38.8954 19 40 19H45ZM57 19C58.1046 19 59 19.8954 59 21V25C59 26.1046 58.1046 27 57 27H51C49.8954 27 49 26.1046 49 25V21C49 19.8954 49.8954 19 51 19H57ZM10 9C11.1046 9 12 9.89543 12 11V15C12 16.1046 11.1046 17 10 17H7C5.89543 17 5 16.1046 5 15V11C5 9.89543 5.89543 9 7 9H10ZM21 9C22.1046 9 23 9.89543 23 11V15C23 16.1046 22.1046 17 21 17H16C14.8954 17 14 16.1046 14 15V11C14 9.89543 14.8954 9 16 9H21ZM32 9C33.1046 9 34 9.89543 34 11V15C34 16.1046 33.1046 17 32 17H27C25.8954 17 25 16.1046 25 15V11C25 9.89543 25.8954 9 27 9H32ZM43 9C44.1046 9 45 9.89543 45 11V15C45 16.1046 44.1046 17 43 17H38C36.8954 17 36 16.1046 36 15V11C36 9.89543 36.8954 9 38 9H43ZM57 9C58.1046 9 59 9.89543 59 11V15C59 16.1046 58.1046 17 57 17H49C47.8954 17 47 16.1046 47 15V11C47 9.89543 47.8954 9 49 9H57Z" fill="#385994" style="fill:#385994;fill:color(display-p3 0.2196 0.3490 0.5804);fill-opacity:1;"/>
</svg>
