<svg width="64" height="64" viewBox="0 0 64 64" fill="none" xmlns="http://www.w3.org/2000/svg">
<path fill-rule="evenodd" clip-rule="evenodd" d="M14.0207 46.5H38.0207C39.1253 46.5 40.0207 47.3954 40.0207 48.5C40.0207 49.6046 39.1253 50.5 38.0207 50.5H14.0207C12.9161 50.5 12.0207 49.6046 12.0207 48.5C12.0207 47.3954 12.9161 46.5 14.0207 46.5H14.0207ZM50.0207 42.5H14.0207H14.0207C12.9161 42.5 12.0207 41.6046 12.0207 40.5C12.0207 39.3954 12.9161 38.5 14.0207 38.5H50.0207C51.1253 38.5 52.0207 39.3954 52.0207 40.5C52.0207 41.6046 51.1253 42.5 50.0207 42.5ZM14.0207 30.5H48.0207C49.1253 30.5 50.0207 31.3954 50.0207 32.5C50.0207 33.6046 49.1253 34.5 48.0207 34.5H14.0207C12.9161 34.5 12.0207 33.6046 12.0207 32.5C12.0207 31.3954 12.9161 30.5 14.0207 30.5H14.0207ZM14.0207 22.5H42.0207C43.1253 22.5 44.0207 23.3954 44.0207 24.5C44.0207 25.6046 43.1253 26.5 42.0207 26.5H14.0207C12.9161 26.5 12.0207 25.6046 12.0207 24.5C12.0207 23.3954 12.9161 22.5 14.0207 22.5H14.0207ZM50.0207 18.5H14.0207H14.0207C12.9161 18.5 12.0207 17.6046 12.0207 16.5C12.0207 15.3954 12.9161 14.5 14.0207 14.5H50.0207C51.1253 14.5 52.0207 15.3954 52.0207 16.5C52.0207 17.6046 51.1253 18.5 50.0207 18.5Z" fill="#385994" style="fill:#385994;fill:color(display-p3 0.2196 0.3490 0.5804);fill-opacity:1;"/>
</svg>
