<svg width="64" height="64" viewBox="0 0 64 64" fill="none" xmlns="http://www.w3.org/2000/svg">
<path fill-rule="evenodd" clip-rule="evenodd" d="M55.0106 36.0208C49.2013 36.0208 48.1316 38.3192 45.3782 39.6487C40.3743 42.0645 37.0103 45.1757 37.0103 51.0208C37.0103 54.1178 36.9823 56.0208 36.0103 56.0208C34.2353 56.0208 33.3273 54.1779 32.5037 52.7673C31.9415 52.9516 31.3516 53.0374 30.7602 53.0207C28.4823 53.0207 16.0102 48.5228 16.0102 46.0207C16.0102 44.5518 17.0102 43.7618 17.0102 42.0207V41.9938C16.9657 40.5185 16.2361 39.1481 15.037 38.2874C13.4324 37.1396 12.2185 35.5272 11.5588 33.6679C11.075 33.8983 10.5462 34.0187 10.0104 34.0207C8.09101 34.0207 6.01041 31.6822 6.01041 28.0207C6.01041 24.3692 6.72831 23.0207 7.51041 23.0207C8.52411 23.0207 8.76041 23.5207 8.76041 23.5207C8.76041 23.5207 9.45401 21.0113 10.8661 21.0113C11.5983 21.0212 12.2639 21.4386 12.5917 22.0934H12.5917C14.9678 19.4008 18.4207 17.9077 22.01 18.0208C36.5141 18.0208 37.48 27.0208 42.01 27.0208C43.6877 27.0208 45.01 24.6402 45.01 24.0208C45.01 22.0992 36.01 18.4857 36.01 10.0208C36.01 8.69831 37.0724 8.02081 38.51 8.02081C39.76 8.02081 42.4285 9.64851 44.01 12.0208C46.4266 15.6459 46.0594 20.0208 49.01 22.0208C50.1146 22.7697 52.93 22.715 55.01 24.0208C57.09 25.3266 58.3749 27.4946 59.01 28.0208C59.5957 28.5282 59.9555 29.2478 60.01 30.0208C60.01 30.9842 57.8358 36.0208 55.0106 36.0208H55.0106ZM31.0106 44.0208C28.3356 43.9707 25.7011 43.3585 23.2781 42.224C23.1179 42.8102 23.028 43.4134 23.0103 44.0208C23.0103 45.6936 24.3057 46.3354 29.0103 48.0208H29.0103C30.0672 48.3783 31.088 48.8347 32.059 49.3842V49.3842C32.168 47.5632 32.3707 45.749 32.6663 43.9488C32.1253 43.9869 31.5806 44.0208 31.0106 44.0208Z" fill="#385994" style="fill:#385994;fill:color(display-p3 0.2196 0.3490 0.5804);fill-opacity:1;"/>
</svg>
