<svg width="64" height="64" viewBox="0 0 64 64" fill="none" xmlns="http://www.w3.org/2000/svg">
<path d="M54.0146 26.0205C55.1197 26.02 56.0167 26.9154 56.0176 28.0205C56.0176 28.0716 56.0156 28.1229 56.0117 28.1738L54.3887 49.251C54.2671 50.8146 52.9618 52.0211 51.3936 52.0205H12.6484C11.0801 52.0211 9.77595 50.8146 9.6543 49.251L8.03027 28.1738L8.02539 27.9688C8.05111 26.9552 8.84031 26.1054 9.87305 26.0264C9.92408 26.0225 9.97616 26.0205 10.0273 26.0205H54.0146ZM28.8896 32C26.742 32 25.0002 33.741 25 35.8887V42.1104C25 44.2581 26.7419 46 28.8896 46H35.1113C37.259 45.9998 39 44.258 39 42.1104V35.8887C38.9998 33.7411 37.2589 32.0002 35.1113 32H28.8896ZM34.9238 36.3818C35.3139 36.2155 35.7651 36.397 35.9316 36.7871C36.0981 37.1772 35.9165 37.6284 35.5264 37.7949C34.8196 38.0967 33.8817 38.7319 32.9229 39.5391C32.0681 40.2586 31.2851 41.044 30.8975 41.5576C30.5979 41.9543 30.0068 41.9662 29.6914 41.582C29.5651 41.4281 28.1349 39.5279 28.124 39.5127C27.8775 39.1677 27.9568 38.6881 28.3018 38.4414C28.6468 38.1947 29.127 38.2748 29.3789 38.627C29.3963 38.6508 30.1475 39.6736 30.3711 39.9648C30.4135 40.0169 30.9987 39.1513 31.9336 38.3643C32.9988 37.4676 34.0517 36.7541 34.9238 36.3818ZM23.5625 12.0254C24.5511 12.0745 25.4892 12.4892 26.1924 13.1924L29.8496 16.8486C30.5998 17.5987 31.6169 18.0205 32.6777 18.0205H52.0205C53.1248 18.0206 54.0213 18.9162 54.0215 20.0205V23.0205C54.0215 23.5725 53.5734 24.0201 53.0215 24.0205H11.0215L10.9189 24.0156C10.4146 23.9645 10.0215 23.5383 10.0215 23.0205V14.0205L10.0312 13.8164C10.1336 12.8079 10.9859 12.0205 12.0215 12.0205H23.3643L23.5625 12.0254Z" fill="#385994" style="fill:#385994;fill:color(display-p3 0.2196 0.3490 0.5804);fill-opacity:1;"/>
</svg>
