<svg width="64" height="64" viewBox="0 0 64 64" fill="none" xmlns="http://www.w3.org/2000/svg">
<path fill-rule="evenodd" clip-rule="evenodd" d="M32 56H32C18.7452 56 8 45.2548 8 32C8 18.7452 18.7452 8 32 8C45.2548 8 56 18.7452 56 32V32C56 45.2548 45.2548 56 32 56L32 56ZM32 12H32C20.9543 12 12 20.9543 12 32C12 43.0457 20.9543 52 32 52C43.0457 52 52 43.0457 52 32V32.0001C52 20.9544 43.0458 12.0002 32.0001 12.0001L32 12ZM33.5 24C31.7087 24.1271 30.1483 22.7897 30 21V21C30.1483 19.2103 31.7087 17.8729 33.5 18C35.2914 17.8728 36.8518 19.2103 37 21C36.8517 22.7897 35.2914 24.1271 33.5001 24L33.5 24ZM34.92 30.7635L32.1353 41.2728V41.2728C31.8646 42.2934 32.3978 43.3556 33.3779 43.7485C33.7574 43.9005 34.0062 44.2682 34.0061 44.677V45C34.0061 45.552 33.5589 45.9996 33.0069 46H30.0182C28.3587 46.0079 27.007 44.6691 26.9991 43.0096C26.9978 42.7488 27.0305 42.4889 27.0964 42.2365L29.8816 31.7271C30.1523 30.7065 29.6192 29.6443 28.6392 29.2514C28.2597 29.0994 28.0109 28.7317 28.011 28.3229V28C28.011 27.448 28.4583 27.0004 29.0103 27H31.9992C33.6586 26.9922 35.0101 28.3311 35.0179 29.9904C35.0191 30.2513 34.9864 30.5111 34.9205 30.7635L34.92 30.7635Z" fill="#385994" style="fill:#385994;fill:color(display-p3 0.2196 0.3490 0.5804);fill-opacity:1;"/>
</svg>
