<svg width="64" height="64" viewBox="0 0 64 64" fill="none" xmlns="http://www.w3.org/2000/svg">
<path fill-rule="evenodd" clip-rule="evenodd" d="M48.01 49.02H26.01H26C24.89 49.01 24 48.12 24 47.02C24 45.91 24.89 45.02 26 45.02H48H47.99C49.09 45.01 49.99 45.91 49.99 47.02C49.99 48.12 49.09 49.02 47.99 49.02H48.01ZM48.01 39.02H26.01H26C24.89 39.01 24 38.12 24 37.02C24 35.91 24.89 35.02 26 35.02H48H47.99C49.09 35.01 49.99 35.91 49.99 37.02C49.99 38.12 49.09 39.02 47.99 39.02H48.01ZM48.01 29.02H26.01L26 29.01C24.89 29 24 28.11 24 27.01C23.99 25.9 24.89 25.01 26 25.01H48H47.99C49.09 25 49.99 25.9 49.99 27.01C49.99 28.11 49.09 29.01 47.99 29.01L48.01 29.02ZM48.01 19.02H26.01L26 19.01C24.89 19 24 18.11 24 17.01C24 15.9 24.89 15.01 26 15.01H48C49.1 15.01 50 15.9 50 17.01C49.99 18.11 49.1 19.01 48 19.01L48.01 19.02ZM14.01 26.02C14 24.91 14.9 24.02 16.01 24.02H18.01H18C19.1 24.01 20 24.91 20 26.02V28.02C20 29.12 19.1 30.02 18 30.02H16L15.99 30.019C14.88 30.009 13.99 29.119 13.99 28.019L14.01 26.02ZM16.01 44.02H18.01H18C19.1 44.01 20 44.91 20 46.02V48.02C20 49.12 19.1 50.02 18 50.02H16H15.99C14.88 50.01 13.99 49.12 13.99 48.02V48.019V46.019V46.009C13.99 44.899 14.88 44.009 15.99 44.009L16.01 44.02ZM14.01 36.02C14 34.91 14.9 34.02 16.01 34.02H18.01H18C19.1 34.01 20 34.91 20 36.02V38.02C20 39.12 19.1 40.02 18 40.02H16H15.99C14.88 40.01 13.99 39.12 13.99 38.02V38.019L14.01 36.02ZM20.01 18.02C20.01 19.12 19.11 20.02 18.01 20.02H16.01L16 20.01C14.89 20 14 19.11 14 18.01V16.01C13.99 14.9 14.89 14.01 16 14.01H18H17.99C19.09 14 19.99 14.9 19.99 16.01L20.01 18.02Z" fill="#385994" style="fill:#385994;fill:color(display-p3 0.2196 0.3490 0.5804);fill-opacity:1;"/>
</svg>
