<svg width="64" height="64" viewBox="0 0 64 64" fill="none" xmlns="http://www.w3.org/2000/svg">
<path fill-rule="evenodd" clip-rule="evenodd" d="M32.9989 12H14.9998C11.6872 12.0041 9.00309 14.6883 9 18V46V45.9998C9.00303 49.3115 11.687 51.9957 14.9996 52H32.9989C36.3117 51.996 38.9959 49.3118 38.9991 46V40C39.0226 38.8957 38.1461 37.9815 37.0415 37.958C35.9368 37.9346 35.0223 38.8108 34.9989 39.9152C34.9983 39.9434 34.9983 39.9717 34.9989 40V46V46C34.9981 47.1039 34.1033 47.9988 32.999 48H14.9998C13.8955 47.9987 13.0007 47.104 12.9998 46V18V18.0001C13.0009 16.8962 13.8955 16.0015 14.9997 16H32.9988C34.1031 16.0014 34.9978 16.8961 34.9988 18V24C34.9754 25.1043 35.8519 26.0185 36.9565 26.042C38.0611 26.0654 38.9756 25.1892 38.9991 24.0848C38.9997 24.0566 38.9997 24.0283 38.9991 24V18V18.0002C38.996 14.6884 36.3118 12.0041 32.9991 12L32.9989 12ZM20.9965 32V31.9999C20.9961 33.1041 21.8912 33.9996 22.9957 34H42.9779V38.9953C42.9876 39.5622 43.4552 40.0139 44.0223 40.0041C44.2295 40.0006 44.4308 39.9344 44.5998 39.8143L54.5705 32.8255C55.023 32.5125 55.136 31.8921 54.8229 31.4397C54.7547 31.3411 54.6692 31.2556 54.5705 31.1874L44.5998 24.1986C44.1375 23.8701 43.4963 23.9784 43.1677 24.4406C43.0476 24.6094 42.9815 24.8107 42.9779 25.0178V30.0002H22.9961C21.8917 30.0005 20.9965 30.8958 20.9968 31.9999C20.9968 32 20.9968 32.0001 20.9968 32.0002L20.9965 32Z" fill="#385994" style="fill:#385994;fill:color(display-p3 0.2196 0.3490 0.5804);fill-opacity:1;"/>
</svg>
