<svg width="64" height="64" viewBox="0 0 64 64" fill="none" xmlns="http://www.w3.org/2000/svg">
<path fill-rule="evenodd" clip-rule="evenodd" d="M53.3175 22.8459C52.8996 23.8992 52.8868 25.07 53.2816 26.1322V26.1322C54.9643 30.5676 55.8786 35.2574 55.9852 40C55.9852 52.6832 51.9566 56 46.9873 56C42.018 56 37.9893 52.6832 37.9893 40V38.212L35.8805 45.8032L35.8683 45.8C35.4515 47.3963 33.8195 48.3524 32.2233 47.9356C30.627 47.5187 29.6709 45.8868 30.0877 44.2905C30.0957 44.2602 30.104 44.2301 30.1129 44.2L30.1007 44.1967L34.6762 27.7281C35.1862 25.8914 35.0792 23.9381 34.3715 22.1681L34.0528 21.3714C33.8477 20.8586 34.0971 20.2767 34.6099 20.0715C34.7279 20.0243 34.8539 20.0001 34.981 20H52.9788C53.5311 20.0001 53.9788 20.4478 53.9787 21.0001C53.9787 21.1273 53.9545 21.2533 53.9072 21.3714L53.3175 22.8459ZM20.8993 53.8472L20.0677 61.3328C20.0255 61.7125 19.7047 61.9999 19.3226 62H18.6653C18.2832 61.9999 17.9623 61.7126 17.9201 61.3328L17.0959 53.9113L8.03001 21.2729C7.88213 20.7401 8.19418 20.1883 8.72699 20.0404C8.81091 20.0171 8.89752 20.0049 8.98461 20.004C9.59913 20.0116 10.1877 20.2528 10.6308 20.6787C12.5244 22.4453 15.4628 22.4436 17.3543 20.6747C18.2555 19.7804 19.7093 19.7804 20.6105 20.6747C22.502 22.4436 25.4404 22.4453 27.334 20.6787C27.7752 20.2548 28.3605 20.0138 28.9722 20.004H28.9869C29.5386 20.0045 29.9854 20.4522 29.9849 21.0038C29.9848 21.0942 29.9725 21.1841 29.9482 21.2711L20.8993 53.8472ZM26.9917 13C25.8874 12.9997 24.9923 12.1043 24.9923 11V8.00001V8.00001C25.017 6.89572 24.1418 5.98049 23.0375 5.95579C21.9332 5.9311 21.018 6.80628 20.9933 7.91057C20.9926 7.94038 20.9926 7.9702 20.9933 8.00001V17C20.9933 17.5523 20.5456 18 19.9933 18H17.9933C17.441 18 16.9933 17.5523 16.9933 17V8.00001V8.00001C16.9933 4.68694 19.6791 2.00116 22.9922 2.00116C26.3052 2.00116 28.991 4.68694 28.991 8.00001V11V11C28.991 12.1043 28.096 12.9996 26.9917 13V13Z" fill="#385994" style="fill:#385994;fill:color(display-p3 0.2196 0.3490 0.5804);fill-opacity:1;"/>
</svg>
