<svg width="64" height="64" viewBox="0 0 64 64" fill="none" xmlns="http://www.w3.org/2000/svg">
<path fill-rule="evenodd" clip-rule="evenodd" d="M59.9865 40.9958C59.9865 44.8613 56.853 47.9948 52.9875 47.9949H24.992C20.0223 47.9949 15.9935 43.9661 15.9935 38.9964C15.9935 34.3952 19.4646 30.5352 24.04 30.0484C24.5567 24.0033 29.876 19.5216 35.9211 20.0383C39.4687 20.3415 42.6494 22.3452 44.4546 25.4142C48.6139 23.9927 53.1381 26.2122 54.5597 30.3716C54.987 31.6219 55.0963 32.959 54.8777 34.2621C57.8972 35.1083 59.9849 37.86 59.9866 40.9958L59.9865 40.9958ZM20.9926 16.9866C23.421 16.9854 25.718 18.089 27.2346 19.9856C27.4004 20.2038 27.358 20.5151 27.1398 20.6809C27.1372 20.6828 27.1346 20.6848 27.132 20.6867L27.132 20.6867C24.7305 22.5147 23.0363 25.118 22.3373 28.054C22.2973 28.2265 22.1661 28.3632 21.9953 28.4102C20.0853 28.9478 18.3578 29.9953 16.9979 31.4402C16.8318 31.6242 16.5556 31.6576 16.3504 31.5185V31.5185C12.7462 28.9576 11.9004 23.9598 14.4613 20.3556C15.964 18.2408 18.3983 16.9852 20.9926 16.9869V16.9866ZM32.3739 16.3148C32.034 16.8812 31.6029 17.3876 31.098 17.8136L30.0639 18.686C29.6492 19.0405 29.0257 18.9917 28.6712 18.577C28.6709 18.5767 28.6706 18.5763 28.6703 18.576C25.127 14.3338 18.8156 13.7672 14.5734 17.3105C10.3312 20.8539 9.76466 27.1653 13.308 31.4074C13.7176 31.8979 14.1733 32.348 14.6688 32.7516C15.0908 33.0985 15.1515 33.7218 14.8046 34.1438C14.7882 34.1637 14.771 34.183 14.7531 34.2016L13.724 35.2806H13.724C13.3529 35.6697 12.9311 36.0071 12.47 36.2838L8.66552 38.5665C8.23459 38.8251 7.6756 38.6854 7.41698 38.2545C7.244 37.9662 7.24402 37.6061 7.41702 37.3179L10.1164 32.8187C10.3752 32.3878 10.2356 31.8288 9.80477 31.5701C9.63627 31.4689 9.43955 31.425 9.24402 31.4449L7.19062 31.6536C6.69064 31.7046 6.24394 31.3407 6.1929 30.8407C6.16179 30.5361 6.286 30.2362 6.52342 30.0428L8.12282 28.7381C8.51232 28.4205 8.57061 27.8473 8.25301 27.4578C8.12892 27.3056 7.95892 27.1976 7.76842 27.15L2.67842 25.8773C2.19083 25.7554 1.89435 25.2614 2.0162 24.7738C2.09769 24.4477 2.35231 24.1931 2.67842 24.1116L7.76842 22.839C8.25601 22.7172 8.55253 22.2231 8.4307 21.7355C8.38309 21.545 8.27508 21.3749 8.12282 21.2508L6.52342 19.9461C6.13378 19.6286 6.07525 19.0554 6.39268 18.6658C6.58611 18.4284 6.88597 18.3042 7.19062 18.3353L9.24402 18.5439V18.5439C9.74402 18.5948 10.1906 18.2307 10.2415 17.7307C10.2614 17.5353 10.2175 17.3387 10.1164 17.1703L7.41702 12.6712C7.1582 12.2404 7.29762 11.6813 7.72844 11.4225C8.01677 11.2493 8.37714 11.2492 8.66552 11.4224L13.1645 14.1224H13.1645C13.5954 14.3811 14.1544 14.2416 14.4131 13.8107C14.5144 13.6422 14.5583 13.4454 14.5383 13.2499L14.33 11.196C14.2792 10.696 14.6433 10.2494 15.1433 10.1986C15.4477 10.1677 15.7472 10.2917 15.9405 10.5288L17.2453 12.1288C17.5629 12.5183 18.1362 12.5765 18.5257 12.2589C18.6779 12.1348 18.7858 11.9648 18.8334 11.7743L20.1061 6.68428C20.2282 6.19675 20.7224 5.90048 21.2099 6.02255C21.5357 6.10412 21.7901 6.3585 21.8716 6.68428L23.1443 11.7743C23.2661 12.2619 23.7601 12.5584 24.2477 12.4367C24.4383 12.3891 24.6084 12.281 24.7325 12.1288L26.0371 10.5288C26.3546 10.1392 26.9278 10.0808 27.3174 10.3983C27.5547 10.5917 27.6789 10.8914 27.6478 11.196L27.4393 13.2495C27.3884 13.7495 27.7524 14.1961 28.2524 14.247C28.4478 14.2669 28.6445 14.2231 28.8129 14.122L33.3118 11.422C33.7427 11.1633 34.3017 11.3029 34.5604 11.7338C34.7336 12.0223 34.7334 12.3828 34.56 12.6712L32.3739 16.3148Z" fill="#385994" style="fill:#385994;fill:color(display-p3 0.2196 0.3490 0.5804);fill-opacity:1;"/>
</svg>
