<svg width="64" height="64" viewBox="0 0 64 64" fill="none" xmlns="http://www.w3.org/2000/svg">
<path fill-rule="evenodd" clip-rule="evenodd" d="M51.8955 22.791L47.9148 25.0942L50.9086 26.8214C51.8317 27.3281 52.2282 28.4463 51.8307 29.4214C51.3848 30.4297 50.206 30.8856 49.1977 30.4398C49.1356 30.4123 49.0749 30.3817 49.0159 30.348L44.92 27.9852C44.2998 27.6276 43.5359 27.6281 42.9162 27.9865L35.98 32L42.9159 36.0135C43.5356 36.372 44.2995 36.3725 44.9197 36.0149L48.9146 33.71C49.7723 33.1904 50.879 33.36 51.5418 34.1126C52.2487 34.958 52.1364 36.2164 51.291 36.9234C51.2053 36.995 51.1138 37.0594 51.0173 37.1157L47.9148 38.9057L51.8955 41.2089C52.8204 41.7175 53.2183 42.8378 52.8214 43.8159C52.374 44.8221 51.1956 45.2752 50.1894 44.8278C50.1251 44.7992 50.0623 44.7672 50.0014 44.732L46 42.4164V45.9V45.9C46.0213 46.9024 45.3207 47.7758 44.3375 47.9723C43.2509 48.1617 42.2165 47.4344 42.0271 46.3478C42.0081 46.2385 41.9981 46.1278 41.9975 46.0168V41.2531V41.2535C41.9975 40.5397 41.6171 39.88 40.9993 39.5225L33.9919 35.4677V43.6194V43.619C33.9919 44.3337 34.3733 44.9941 34.9924 45.3513L38.9 47.606C39.823 48.1128 40.2195 49.231 39.8219 50.206C39.376 51.2143 38.1972 51.6702 37.1889 51.2244C37.1268 51.1969 37.0661 51.1663 37.0071 51.1326L33.9909 49.3926V53.8926V53.8926C34.0129 54.8978 33.311 55.774 32.3254 55.9721C31.2352 56.1574 30.2013 55.4238 30.0161 54.3336C29.9973 54.2234 29.9879 54.1118 29.9878 54V49.3927L27.0727 51.0744C26.215 51.5941 25.1082 51.4246 24.4455 50.6719C23.7385 49.8266 23.8506 48.5682 24.6959 47.8613C24.7817 47.7895 24.8734 47.7251 24.97 47.6687L28.987 45.3513C29.6061 44.9942 29.9876 44.3339 29.9878 43.6192V35.4675L22.98 39.5223C22.3621 39.8797 21.9816 40.5393 21.9815 41.2531V45.9V45.9C22.0028 46.9024 21.3022 47.7758 20.319 47.9723C19.2324 48.1617 18.198 47.4344 18.0086 46.3478C17.9896 46.2385 17.9796 46.1278 17.979 46.0168V42.4168L14.07 44.6782C13.213 45.1996 12.1054 45.031 11.4424 44.2782C10.7373 43.4252 10.8571 42.1621 11.7101 41.457C11.7951 41.3867 11.8858 41.3236 11.9812 41.2682L16.0634 38.9061L13.07 37.1786C12.147 36.6718 11.7506 35.5536 12.1483 34.5786C12.5941 33.5703 13.773 33.1144 14.7813 33.5603C14.8434 33.5877 14.9041 33.6184 14.9631 33.652L19.0587 36.0151C19.6788 36.3727 20.4427 36.3722 21.0624 36.0137L27.9982 32L21.0619 27.9865C20.4422 27.6281 19.6783 27.6276 19.0582 27.9852L15.0637 30.29V30.29C14.206 30.8097 13.0992 30.6401 12.4365 29.8874C11.7295 29.0422 11.8416 27.7839 12.6869 27.0769C12.7727 27.0051 12.8644 26.9407 12.961 26.8843L16.0634 25.0943L12.0829 22.791C11.158 22.2823 10.76 21.1621 11.1568 20.1839C11.6044 19.1777 12.7829 18.7247 13.7892 19.1723C13.8534 19.2009 13.916 19.2328 13.9768 19.2679L17.9789 21.5836V18.1V18.1C17.9575 17.0976 18.6582 16.2242 19.6414 16.0277C20.728 15.8384 21.7624 16.5658 21.9518 17.6524C21.9708 17.7617 21.9807 17.8723 21.9814 17.9832V22.747V22.7466C21.9814 23.4604 22.3618 24.1201 22.9796 24.4776L29.9872 28.5324V20.3808V20.3813C29.9872 19.6667 29.6058 19.0063 28.9868 18.6491L25.0785 16.394C24.1555 15.8872 23.759 14.769 24.1566 13.794C24.6025 12.7857 25.7814 12.3298 26.7897 12.7757C26.8518 12.8032 26.9124 12.8338 26.9714 12.8674L29.9878 14.6074V10.1074V10.1074C29.9653 9.1021 30.6671 8.22547 31.653 8.0274C32.7433 7.84222 33.7772 8.57595 33.9624 9.66623C33.9811 9.7765 33.9906 9.88815 33.9907 10V14.6073L36.9056 12.9257C37.7632 12.4059 38.8701 12.5755 39.5328 13.3282C40.2398 14.1735 40.1276 15.4319 39.2823 16.1389C39.1966 16.2106 39.105 16.2749 39.0085 16.3313L34.9915 18.6488V18.6488C34.3723 19.0058 33.9907 19.6661 33.9907 20.3808V28.5325L40.9981 24.4777C41.6159 24.1203 41.9964 23.4607 41.9966 22.7469V18.1C41.9753 17.0976 42.6759 16.2243 43.6591 16.0277C44.7456 15.8378 45.7803 16.5647 45.9702 17.6511C45.9893 17.7608 45.9993 17.8718 46 17.9831V21.5831L50.0021 19.2674C50.9554 18.7162 52.175 19.0421 52.7263 19.9954C52.7615 20.0563 52.7935 20.1191 52.8221 20.1834V20.1834C53.2192 21.1618 52.8209 22.2826 51.8955 22.791L51.8955 22.791Z" fill="#385994" style="fill:#385994;fill:color(display-p3 0.2196 0.3490 0.5804);fill-opacity:1;"/>
</svg>
