<svg width="64" height="64" viewBox="0 0 64 64" fill="none" xmlns="http://www.w3.org/2000/svg">
<g clip-path="url(#clip0_29_255)">
<path fill-rule="evenodd" clip-rule="evenodd" d="M24 10V14C24 15.1046 23.1046 16 22 16C20.8954 16 20 15.1046 20 14V10C20 8.89543 20.8954 8 22 8C23.1046 8 24 8.89543 24 10ZM54 16V50C54 52.2091 52.2091 54 50 54H14C11.7909 54 10 52.2091 10 50V16C10 13.7909 11.7909 12 14 12H17C17.5523 12 18 12.4477 18 13V13.8282V13.8282C17.965 15.9308 19.5205 17.7216 21.6072 17.9812C23.806 18.1978 25.7641 16.5909 25.9807 14.3921C25.9936 14.2618 26 14.1309 26 14V13C26 12.4477 26.4477 12 27 12H37C37.5523 12 38 12.4477 38 13V13.8282V13.8282C37.965 15.9307 39.5203 17.7215 41.607 17.9812C43.8059 18.1979 45.7641 16.591 45.9807 14.3921C45.9936 14.2618 46 14.1309 46 14V13C46 12.4477 46.4477 12 47 12H50C52.2091 12 54 13.7909 54 16V16ZM49 28H15C14.4477 28 14 28.4477 14 29V49C14 49.5523 14.4477 50 15 50H49C49.5523 50 50 49.5523 50 49V29C50 28.4477 49.5523 28 49 28ZM42 8C43.1046 8 44 8.89543 44 10V14C44 15.1046 43.1046 16 42 16C40.8954 16 40 15.1046 40 14V10C40 8.89543 40.8954 8 42 8Z" fill="#385994" style="fill:#385994;fill:color(display-p3 0.2196 0.3490 0.5804);fill-opacity:1;"/>
<rect opacity="0.5" x="18" y="32" width="4" height="4" fill="#385994" style="fill:#385994;fill:color(display-p3 0.2196 0.3490 0.5804);fill-opacity:1;"/>
<rect x="24" y="32" width="4" height="4" fill="#385994" style="fill:#385994;fill:color(display-p3 0.2196 0.3490 0.5804);fill-opacity:1;"/>
</g>
<defs>
<clipPath id="clip0_29_255">
<rect width="64" height="64" fill="white" style="fill:white;fill-opacity:1;"/>
</clipPath>
</defs>
</svg>
